<?xml version="1.0" encoding="utf-8"?>
<!-- Generator: Adobe Illustrator 23.0.6, SVG Export Plug-In . SVG Version: 6.00 Build 0)  -->
<svg version="1.1" id="DISEÑO" xmlns="http://www.w3.org/2000/svg" xmlns:xlink="http://www.w3.org/1999/xlink" x="0px" y="0px"
	 viewBox="0 0 907.09 453.54" style="enable-background:new 0 0 907.09 453.54;" xml:space="preserve">
<style type="text/css">
	.st0{fill-rule:evenodd;clip-rule:evenodd;fill:#BE152B;}
</style>
<g>
	<g>
		<path d="M362.17,372.68c4.57-1.59,8.62-4.87,10.99-8.97h0.14v28.92c0,2.92-0.21,5.28,2.57,7.08v0.16h-10.75v-0.16
			c3.16-1.54,3.02-3.94,3.02-7.08v-19.79h-5.96V372.68z"/>
		<path d="M403.46,372.32h-0.15c-1.91-2.06-5.43-2.2-8.16-2.2l-5.59,0.3l-0.46,8.47c1.64-0.46,3.29-0.67,4.97-0.67
			c6.72,0,12.42,3.8,12.42,10.99c0,6.86-6.57,11.48-15.23,11.48c-2.21,0-4.43-0.31-6.62-0.82l-2.4-5.24
			c2.75,1.44,5.83,2.05,8.97,2.05c4.72,0,9.43-2.15,9.43-7.53c0-4.92-4.7-6.93-8.93-6.93c-2.51,0-5.53,0.67-7.83,1.69l1.12-17.8
			h18.46V372.32z"/>
		<path d="M411.24,383.08c0-9.47,4.67-17.8,13.7-17.8c9.48,0,13.53,9.18,13.53,17.49c0,8.37-4.1,17.9-13.74,17.9
			C416.68,400.58,411.24,392.57,411.24,383.08z M416.74,382.57c0,5.18,1.69,14.1,8.3,14.1c5.09,0,7.96-6.25,7.96-13.47
			c0-7.33-3.09-13.81-8.26-13.9C418.27,369.29,416.74,377.6,416.74,382.57z"/>
		<path d="M464.99,372.32h-0.16c-1.88-2.06-5.43-2.2-8.15-2.2l-5.59,0.3l-0.46,8.47c1.64-0.46,3.29-0.67,4.99-0.67
			c6.72,0,12.4,3.79,12.4,10.98c0,6.86-6.56,11.48-15.24,11.48c-2.21,0-4.39-0.31-6.6-0.82l-2.42-5.23
			c2.76,1.43,5.84,2.04,8.98,2.04c4.71,0,9.43-2.14,9.43-7.53c0-4.92-4.72-6.93-8.92-6.93c-2.52,0-5.54,0.67-7.85,1.69l1.12-17.8
			h18.47V372.32z"/>
	</g>
</g>
<path class="st0" d="M476.81,286.2l27.15,0.18v8.83c0,0-2.37-3.19-5.62-3.19c-3.22,0-11.79,0.53-11.79,0.53v14.29h11.73l1.14-0.26
	v7.96l-2.37-1.8l-10.36,0.01v17.74c0,0,3.69,1.84,9.99,1.84c6.27,0,14.21-4.27,14.21-4.27l-0.61,1.45l-2.9,8.23h-32.32
	c0,0,3.54-2.34,3.5-5.05c-0.06-2.73,0-41.29,0-41.29s0.19-4.18-2.85-4.18C476.42,286.21,476.81,286.2,476.81,286.2z"/>
<path class="st0" d="M407.67,309.77c0-14.29-11.55-20.79-18.2-22.65c-5.58-1.47-12.59-1.18-16.11-1.15l-10.23-0.08
	c0,0-0.39,0-1.06,1.01c0.88,0,1.47,0.35,1.9,0.86c0.15,0.29,0.33,0.58,0.47,0.81c0.23,0.53,0.32,1.08,0.36,1.54v41.38
	c-0.34,2.43-3.34,4.39-3.34,4.39h20.89C382.36,335.86,407.67,337.02,407.67,309.77z M384.65,329.68h-9.47
	c-1.58-0.43-2.43-0.85-2.43-0.85v-17.2h11.21l1.11,0.53v-6.91l-1.12,0.65h-11.37v-13.86c0,0,11.99-0.63,16.9,1.45
	c4.88,2.06,10.44,7.13,10.44,16.92C399.91,327.25,384.65,329.68,384.65,329.68z"/>
<path class="st0" d="M704.8,338.17c0,0,4.83,0,15.41,0c-3.13-0.47-5.66-6.13-5.66-6.13l-17.99-44.75c0,0-8.71,0-11.83,0
	c2.99,1.26,0.61,7.29,0.61,7.29s-11.67,28.65-14.06,34.89c-2.37,6.23-6.19,8.3-6.19,8.3l-0.27,0.32h13.76c0,0-0.91-0.59-1.87-1.84
	c-1.15-1.69-0.18-4.75-0.18-4.75l5.04-12.54h19.74c0,0,4,11.36,5.39,14.79C708.12,337.19,704.8,338.17,704.8,338.17z M683.04,314.24
	l8.24-20.25l7.57,20.25L683.04,314.24z"/>
<path class="st0" d="M510.63,286.23l10.86-0.01v3.35l13.18,35.08l0.92,2.96l1.04-0.73l12.1-32.69c0,0,1.46-4.26,0.17-5.94
	c-1.32-1.65-1.45-1.95-1.45-1.95h10.62l-0.73,3.17l-19.51,49.92c0,0-6.72-1.62-9.76-10.4c-2.73-7.9-13.32-35.72-13.32-35.72
	s-1.36-2.74-2.62-4.84C511.54,287.46,510.57,287.49,510.63,286.23z"/>
<path class="st0" d="M563.11,286.17h13.55l0.64,0.64c0,0-2.93,2.01-2.93,3.99c-0.02,1.57,0,42.77,0,42.77s0.68,2.48,1.53,2.91
	c0.86,0.41,1.31,1.14,1.31,1.14H563.4v-0.84c0,0,2.71-1.16,2.71-3.57c0-2.44-0.36-41.81-0.36-42.82c0-2.27-2.63-2.95-2.63-2.95
	L563.11,286.17z"/>
<path class="st0" d="M607.75,332.34c-5.06,0-8.47-0.57-9.58-1.02c0-9.22-0.02-39.33,0.01-40.67c0-1.96,2.92-3.98,2.92-3.98
	l0.03-0.37h-14.77v0.44c-0.03,0.07,2.09,0.67,2.81,2.06c0.21,0.47,0.34,0.98,0.41,1.43c0,0.3,0.01,3.56,0.07,8.19
	c-0.03,11.25,0,32.29,0,34.27c0,3.23-3.5,5.05-3.5,5.05h32.33l2.9-8.22l0.6-1.44C621.98,328.08,615.45,332.34,607.75,332.34z"/>
<path class="st0" d="M648.73,332.34c-5.07,0-8.47-0.57-9.58-1.02c0-9.22-0.02-39.33,0-40.67c0.03-1.96,2.94-3.98,2.94-3.98
	l0.01-0.37h-14.77v0.44c-0.03,0.07,2.09,0.67,2.79,2.06c0.23,0.47,0.35,0.98,0.42,1.43c0,0.3,0.01,3.56,0.06,8.19
	c0,11.25,0.02,32.29,0.02,34.27c0,3.23-3.49,5.05-3.49,5.05h32.32l2.91-8.22l0.62-1.44C662.98,328.08,656.43,332.34,648.73,332.34z"
	/>
<g>
	<path class="st0" d="M463.95,290.12v-9.29c0,0-7.04-2.04-12.67-2.04c-5.64,0-21.96,1.05-21.96,16.38
		c0,16.05,30.17,14.16,30.17,28.71c0,4.47-6.64,8.53-13.16,8.53c-9.24,0-18.36-6.87-18.36-6.87l2.21,10.3c0,0,6.96,2.88,14.62,2.88
		c7.7,0,24.06-4.33,24.06-17.66c0-17.94-30.01-15.7-30.01-28.04c0-5.22,4.23-8.1,10.92-8.1
		C457.58,284.94,463.95,290.12,463.95,290.12z"/>
</g>
<path class="st0" d="M361.46,201.41h15.28v0.63c0,0-3.22,0.15-3.22,4.64c0,4.48,0,36.03,0,36.03s0.99,10.64,12.92,10.64
	c14.52,0,15.71-8.95,15.71-8.95l-0.03-36.68c0,0-0.51-5.97-3.28-5.97c0-0.58,0.25-0.24,0.25-0.24h15.04v0.54
	c0,0-3.02,0.38-3.02,3.69c0,3.31,0,45.47,0,47.18c0,1.7,0.31,3.5,1.98,4.73c1.69,1.22,1.33,1.34,1.33,1.34h-12.19v-5.51h-1.17
	c0,0-4.84,6.58-15.8,6.58c-12.46,0-20.37-7.06-20.37-17.35c0-5.35,0-36.17,0-36.17S363.75,202.1,361.46,201.41z"/>
<path class="st0" d="M422.25,208.44v-0.56h10.65l30.42,39.07V212.8c0,0-1.27-3.96-3.12-4.24c0-0.6,0-0.7,0-0.7h12.63v0.6
	c0,0-3.31,0.92-3.31,5.08c0,4.18-0.52,47.62-0.52,47.62h-1.13c0,0-4.16-1.67-14.23-14.19c-10.07-12.52-21.61-27.51-21.61-27.51
	l-0.36-0.27v34.99c0,0,1.74,4.34,3.64,4.34c0,0.64,0,0.67,0,0.67h-13.52v-0.84c0,0,3.3-2.34,3.3-4.25c0-1.89,0.36-40.08,0.36-40.08
	S424.98,209.52,422.25,208.44z"/>
<path class="st0" d="M480.88,207.8l13.4,0.21v0.48c0,0-2.65,0.62-2.65,3.16c0,3.23,0,42.77,0,42.77s0.26,3,2.48,3.89
	c0,0.75,0,0.82,0,0.82h-13.31l0.04-0.86c0,0,2.82-1.01,2.82-4.13c0-2.69,0-42.32,0-42.32s-0.91-2.46-2.76-3.34
	C480.77,208.12,480.88,207.8,480.88,207.8z"/>
<path class="st0" d="M682.72,207.79l13.39,0.21v0.5c0,0-2.64,0.59-2.64,3.15c0,3.23,0,42.78,0,42.78s0.27,2.99,2.49,3.88
	c0,0.75,0,0.83,0,0.83h-13.33l0.06-0.86c0,0,2.83-1.01,2.83-4.12c0-2.69,0-42.32,0-42.32s-0.92-2.45-2.76-3.33
	C682.63,208.12,682.72,207.79,682.72,207.79z"/>
<path class="st0" d="M498.84,207.86h10.72c0,0-0.09,1.76,0.33,3.16c0.41,1.42,14.43,38.18,14.43,38.18l13.16-34.23
	c0,0,0.07-4.54-1.16-5.51c-1.24-0.98-1.31-1.65-1.31-1.65h11.62l-21.25,54.11c0,0-5.57-1.93-8.56-8.91
	c-2.42-5.59-15.2-40.37-15.2-40.37l-2.83-3.81L498.84,207.86z"/>
<path class="st0" d="M552.2,208.06l27.19,0.18v8.82c0,0-2.38-3.41-5.6-3.41c-3.27,0-11.83,0.03-11.83,0.03v15.02h11.73l1.14-0.27
	v7.96l-2.35-1.79H562.1l-0.06,17.8c0,0,3.71,1.83,10,1.83c6.27,0,14.28-4.33,14.28-4.33l-3.51,9.68h-32.32c0,0,3.52-2.32,3.48-5.04
	c-0.03-2.74,0-41.31,0-41.31s0.21-4.14-2.86-4.14C551.84,208.08,552.2,208.06,552.2,208.06z"/>
<path class="st0" d="M592.21,208.64c0,0,14.03-0.49,17.64-0.49c3.62,0,16.05,2.29,16.05,13.29c0,8.72-11.71,12.55-11.71,12.55
	l-0.41,1.01c0,0,10.06,14.02,14.94,18.15c4.87,4.12,8.57,6.39,8.57,6.39h-10.12c0,0-2.54,0.3-11.93-10.68
	c-9.4-11-10.86-15.95-10.86-15.95s12.94-1.71,12.94-10.96c0-6.67-6.23-8.67-6.23-8.67s-8.37-1.34-8.37,0.38c0,2.45,0,42.03,0,42.03
	s1.65,3.78,3,3.78c-2.26,0-14.33,0-14.33,0s3.14-0.8,3.14-8.96c0-8.17,0-37.66,0-37.66S593.45,209.18,592.21,208.64z"/>
<path class="st0" d="M722.79,208.67c-4.8,0-19.24-0.01-19.24-0.01l2.92,3.05l-0.04,44.04l-2.88,3.99c0,0,14.31,0.01,18.29,0.01
	c12.53,0,28.8-5.39,28.8-26.74C750.66,210.73,728.94,208.67,722.79,208.67z M725.08,253.55h-10.6l-0.07-38.87
	c0,0,28.24-5.56,28.24,18.98C742.65,253.29,725.08,253.55,725.08,253.55z"/>
<path class="st0" d="M789.54,259.62c0,0,4.83,0,15.4,0c-3.16-0.46-5.65-6.13-5.65-6.13l-17.99-44.72c0,0-8.71,0-11.84,0
	c2.99,1.24,0.64,7.26,0.64,7.26s-11.7,28.66-14.07,34.9c-2.38,6.23-6.18,8.31-6.18,8.31l-0.29,0.31h13.75c0,0-0.88-0.61-1.86-1.87
	c-1.14-1.67-0.18-4.73-0.18-4.73l5.05-12.53h19.73c0,0,4,11.37,5.4,14.79C792.84,258.64,789.54,259.62,789.54,259.62z
	 M767.75,235.68l8.26-20.23l7.54,20.24L767.75,235.68z"/>
<g>
	<path class="st0" d="M670.72,216.87v-8.34c0,0-6.32-1.83-11.39-1.83c-5.08,0-19.75,0.94-19.75,14.74
		c0,14.41,27.17,12.75,27.17,25.81c0,4.01-5.99,7.67-11.84,7.67c-8.31,0-16.54-6.18-16.54-6.18l1.99,9.25c0,0,6.27,2.59,13.18,2.59
		c9.8,0,21.63-3.9,21.63-15.87c0-16.13-27-14.14-27-25.23c0-4.71,3.8-7.26,9.84-7.26C664.99,212.22,670.72,216.87,670.72,216.87z"/>
</g>
<path class="st0" d="M827.23,208.67c-4.8,0-19.27-0.01-19.27-0.01l2.93,3.05l0,44.04l-2.92,3.99c0,0,14.32,0.01,18.31,0.01
	c12.52,0,28.79-5.39,28.79-26.74C855.09,210.73,833.34,208.67,827.23,208.67z M829.5,253.55h-10.6l-0.09-38.87
	c0,0,28.23-5.56,28.23,18.98C847.05,253.29,829.5,253.55,829.5,253.55z"/>
<g>
	<path d="M280.28,329.76c0.23-0.04,0.93-0.34,1.98-0.79c-0.67,0.28-1.36,0.55-2.05,0.79C280.24,329.76,280.25,329.76,280.28,329.76z
		"/>
	<path d="M274.81,287.56c-19.21-6.76-33.27-15.31-33.27-38.7c0.87-8.78,3.66-15.13,5.28-16.86c0.92-0.97-1.81-0.07-4.44,3.13
		c0.16-0.82,0.49-1.66,1.21-2.43c5.14-5.57,7.95-9.02,7.95-10.1c1.34-2.15,0.37-1.64-1.64-0.55c-3.23,2.67-2.59,1.56-4.72,4.94
		c-0.38,0.6-1.19-0.14-1.6,0.45c-3.95,2.85-5.71,10.57-3.84,12.14c-0.59,1.36-1.05,2.92-1.32,4.69c-0.63,4.08-0.99,7.63-1.39,9.97
		c-1.41-8.37-2.73-16.87-3.67-23.26c-0.05-0.44-0.53-2.2-0.59-2.63c-0.16-1.08,0.04-2.3-0.46-3.43c-0.11-0.28-0.67-1.33-0.44-2.64
		c0.7-4.05-0.42-6.66-0.86-9.32c-0.07-0.47-0.61-0.38-0.73,0.45c-0.18,1.37-0.25,4.17-0.65,4.95c-0.12,0.22-0.84-4.33-1.23-5.03
		c-0.12-0.2-0.23-0.7-0.44-1.17c-0.08-0.21-0.19-0.67-0.36-0.87c-0.2-0.24-0.28-0.53-0.38-0.8c-0.11-0.28-0.06-0.69-0.17-0.97
		c-0.16-0.41-0.47-0.71-0.64-1.13c-0.98-2.36-1.86-4.74-2.24-4.31c-0.43,0.49,0.67,5.11,1.33,6.58c1.44,3.06,2.83,7.54,3.91,13.03
		c0.13,0.7,0.61,2.97,0.76,3.64c0.14,0.81,0.22,1.69,0.36,2.45c0.13,0.67,0.21,1.82,0.33,2.41c0.27,1.54,0.22,2.24,0.42,3.14
		c0.19,0.94,0.23,2.05,0.71,3.2c0.63,1.54,0.63,4.85,0.05,3.85c-0.3-0.53-2.95-3.97-3.87-4.54c-0.31-0.18-0.63-0.41-0.95-0.63
		c-2.73-1.9-5.79-4.62-5.79-2.67c4.49,2.27,9.27,10.66,10.92,15.57c0,2.93,0.06,5.11,0.25,6.82c0.12,1.3-1.05,2-0.78,2.88
		c0.21,0.64,1.73,2.01,2.03,2.54c0.82,1.48,2.11,2.41,3.9,4.3c0.46,1.09,0.82,1.78,0.88,1.78c0,4.92,30.55,16.66,11.41,14.51
		c-4.07-1.9-10.17-5.66-11.94-5.66c0,3.96,14.81,11.85,24.21,14.32c1.5-1.53-9.65-4.44-7.02-4.44
		C257.19,287.12,274.81,289.24,274.81,287.56z"/>
	<path d="M226.39,115.67c0.33,0.63,0.67,1.2,0.95,1.75C231.51,116.71,226.39,113.22,226.39,115.67z"/>
	<path d="M230.82,112.45c0.28,0.22,0.54-0.07,0.7-0.15c0.07-0.04,0.2-0.01,0.32,0.08c0.13,0.11,0.29,0.01,0.41-0.05
		c4.03-2.37-3.99-3.16-1.73-0.16C230.62,112.31,230.63,112.3,230.82,112.45z"/>
	<path d="M195.53,247.98c1.04-0.7,0.94-0.57,1.45-1.41c0.54-0.9,0.61-1.29-0.27-2.24c-2.68-2.69-5.15-5.42-10.83-18.17
		c-1.81-4.06-2.61,6.9-1.29,13.77c2.02,10.49,3.04,12.43,4.96,14.63c3.37,3.79,8.71,10.44,8.71,10.44s3.4,3.83,2.4-0.53
		c-0.92-4.32-4.29-7.43-7.23-9.45c-2.91-2.01-1.76-4.2-1.76-4.2S193.19,249.64,195.53,247.98z"/>
	<path d="M200.11,275.58c-0.25-1.78-1.75-6.82-2.9-8.22c-1.16-1.38-10.56-11.32-11.71-12.74c-1.14-1.42,1.54,7.96,1.54,7.96
		s0.08,0.11,0.21,0.33c-0.38,0.54-0.28,2.45-0.45,2.49c1.35,3.46,9.15,6.2,11.59,9.69C199.37,275.88,200.18,275.99,200.11,275.58z"
		/>
	<path d="M197.06,276.63c-1.89-1.66-5.44-4.08-7.03-4.08c-1.6,0-3.92,1.35-3.92,1.35s-1.46,7.19-1.46,9.62
		c0,2.44-0.31,7.45,1.57,5.65c1.85-1.74,2.72,1.38,4.33,1.38c1.62,0,0,2.94,4.88-2.45c3.07-3.39,3.81-6.57,3.81-6.57
		S200.02,279.25,197.06,276.63z"/>
	<path d="M180.53,296.02c-5.49,1.77-5.68,2.05-9.34,2.61c-6.89,1.05-4.61-10.91-8.08-6.92c-3.47,3.99-5.1,6.5-5.07,12.03
		c0.01,3-3.24,3.96,0.8,6.87c4.02,2.89,5.44-0.14,11.12-0.37c5.67-0.22,4.25-1.71,9.08-2.74c4.82-1.04,7.9-3.2,9.06-8.72
		c1.19-5.53,3.76-4.9-0.36-6.07C183.62,291.52,185.64,294.37,180.53,296.02z"/>
	<path d="M290.07,287.85c1.96,1.09,4.11,2.27,6.52,3.61c1.04,0.57,5.23,3.69,1.84,0c-3.23-3.49-18.06-10.58-21.42-19.82
		c-0.58-1.65-3.82-3.83-3.82-3.83c0.2-2.12-0.68-2.2-0.56-3.85l-0.18-1.02c0,0,0,0,0.25-2.77c0.42-4.85,8.74-15,9.75-18.88
		c0.16-0.58,0.62-1.75-1.93-1.95c-7.71-0.61-11.8-5.78-13.75-7.53c-0.38-0.34-0.65,0.19-0.63,0.78c0.06,2.85-0.07,7.03-0.09,9.58
		c-0.31-0.12-0.64-0.22-1-0.33c-1.69-0.49-6.86-0.58-9.47-0.58c-2.21,0-5.56,1.11-6.99,2.17c-1.32,0.96-7.11,3.2,1.83,1.13
		c1.69-0.38,4-0.83,6.36-0.83c1.7,0,4.29,0.93,5.44,1.27c1.59,0.46,3.03,0.97,4.18,1.35c0.66,3.15,2.05,6.3,2.82,10.08
		c1.06,5.04,1.21,9.7,1.21,9.7s3.59,6.53,5.62,10.88c0.96,2.03,2.83,3.82,5.78,5.84c-0.1,0.14-0.16,0.32-0.18,0.55
		c-0.07,0.62-0.65-0.61-3.07-1.04c-1.17-0.2-2.32-0.27-2.99-0.47c-0.96-0.29-1.22-0.29-2.21-0.74c-1.84-0.85-3.08-1.32-5.19-2.1
		c-4.41-2.58-7.07-2.27-8.94-4.02c-3.36-2.55-7.01-6.43-7.89-5.23c0.11,0.63,0.79,1.55,1.78,2.55c0.31,0.32,0.58,0.33,0.95,0.67
		c0.26,0.24,0.54,0.93,0.83,1.17c0.44,0.38,1.32,0.58,1.98,1.11c0.57,0.43,0.92,0.56,1.47,1c0.21,0.15,0.54,0.74,0.73,0.9
		c1.2,0.91,2.37,1.64,3.43,2.25c-0.06,0.2,1.41,1.1,1.99,1.24c0.08,0.24,0.4,0.7,1.23,0.99c0.63,0.65,2.41,1.25,3.64,1.66
		c0.34,0.39,1.55,0.82,2.09,0.87c1.02,0.69,3.09,0.74,4.03,0.95c4.28,2.04,6.8,2.63,8.58,2.92c2.33,0.96,6.47,1.18,5.87-0.17
		C290.01,287.93,290.05,287.88,290.07,287.85z"/>
	<path d="M260.86,212.26c0.11,2.43,0.47,4.87,1.56,6.27c-0.08-0.19-0.14-0.38-0.21-0.57C261.69,216.46,261.28,214.31,260.86,212.26z
		"/>
	<path d="M210.14,363.1c0.35-0.02,3.1-0.19,3.1-0.19s2.51,0.88,4.85,1.75c2.31,0.9,7.94,5.18,8.71,5.85
		c0.79,0.66,4.62,6.16,5.39,6.94c0.77,0.78,1.75,2.32,2.54,4.42c0.79,2.1,0.09,4.09-1.17,4.49c-4.05,1.37-5.13-1.39-5.22-2.28
		c-0.1-0.87-0.33-1,0.53-2.44c0.91-1.45,2.86,0.58,2.54-1.31c-0.33-1.86-2.63-1.78-2.63-1.78s-4.96,0.81-4.84,5.75
		c0.08,4.97,3.15,6.43,6.24,7.34c3.11,0.84,6.69-0.45,7.84-2.67c4.6-8.86-1.3-17.57-1.43-17.91c-2.4-6.19-10.04-12.76-10.04-12.76
		s-1.2-1.57-1.55-2.46c-0.3-0.89,10.42,7.13,13.01,12.72c1.55,3.24,2.15,4.79,2.26,7.19c0.09,2.43-0.12,2.84,0.94,3.47
		c1,0.58,1.25-2.2,1.9-2.2c0.67,0,1.83-1.45,1.83-1.45s0.6-2.64,0.6-6.27c0-3.66-0.85-7.69-1.72-9.78c-0.86-2.1,0.79-0.64,0.79-0.64
		s1.94-0.48,3.8,7.68c1.86,8.15-1.36,12.41-0.91,12.91c0.46,0.5,1.79-1.61,2.45-2.49c0.69-0.91,0.83-2.2,1.14-4.53
		c0.32-2.3,1.9-8.89,2.36-9.63c0.43-0.78,0.95,2.69,0.71,8.18c-0.27,5.58-1.17,4.9-2.14,8.45c-0.63,2.18-2.35,6.76,2.74-0.32
		c2.02-2.84,3.42-9.43,3.58-10.52c0.33-2.4,1.68-5.04,2.56-4.69c0.9,0.34-0.53,2.98-0.84,4.88c-0.37,1.86-2.31,7.8-2.67,8.78
		c-0.31,0.97-1.1,2.55-1.42,3.2c-0.35,0.66,4.45,0.38,12.11-19.19c0.28-0.71,1.94-2.77,2.01-3.53c0.19-1.82,0.16-1.96-0.5-2.56
		c-0.37-0.33-0.48-0.98-1.62-1.02c-1.55-0.07-1.46,0.01-2.15,0.2c-1.21,0.32-0.55,2.09-1.53,2.89c-1,0.78-6.38,1.16-7.66,0.81
		c-1.34-0.34-2.54-0.44-3.42-0.55c-0.9-0.11-0.64-1.42-0.64-2.33c0-0.87-0.34-1.86-1.1-1.86c-0.8,0-2.32-3.27-3.76-3.51
		c-1.42-0.21-2.84-0.93-3.48-0.93c-0.69,0-2.93-0.68-4.39-2.49c-1.46-1.79-7.96-0.01-9.85-0.13c-1.15-0.08-6.7,2.73-8.14,2.74
		c-0.47,0-1.61,0.69-2.52,0.69c-0.43,0-1.32,0.8-1.72,0.8c-2.32-0.07-3.28,0.18-2.88-0.22c1.11-1.12,7.82-2.56,8.6-3.03
		c7.42-4.6,7.39-1.74,8.34-3.25c0.61-1.34,4.93-1.07,4.5-2.41c-0.47-1.32-5.75-0.51-6.85-0.51c-1.1,0,0.05-0.98-7.62,2.22
		c-1.24,0.53-4.55,3.96-8.02,3.11c-1.31-0.32-8.76,0.99-10.43,2.71c-1.43,2.25-1.92,1.37-2.04,2.78c-0.11,1.46,0,2.21,0.32,2.31
		c0.37,0.1,3.77,0.02,3.77,0.02s4.32,1.46,4.61,4.97c0.12,1.74-1.62,1.32-1.62,1.32s-1-1.45-0.67-2.09
		c0.32-0.69-0.33-1.23-1.42-0.79c-1.13,0.44-0.9,2.89-0.9,2.89S205.63,364.03,210.14,363.1z"/>
	<path d="M224.43,392.33c0,0-3.18-2.05-3.46-5.13c-0.26-3.06-2.42-2.22-2.42-2.22s-0.91,4.88,2.16,7.55
		c4.02,3.5,8.27,4.67,7.47,3.01C227.38,393.85,224.43,392.33,224.43,392.33z"/>
	<path d="M219.6,380.7c-2.17-0.84-9.4-2.26-9.4-2.26s1.05,3.66,4.03,3.66c2.93,0,6.42,0.54,6.42,0.54S221.7,381.53,219.6,380.7z"/>
	<path d="M222.98,372.28c-0.93-0.76-1.6-1.64-2.36-2.23c-4.05-3.08-6.55-3.78-6.55-3.78s-0.99-0.26-1.86,0.48
		c-0.36,0.32-0.75,0.57-0.89,0.89c-0.39,0.88,1.24,1.68,1.65,1.85c0.94,0.39,1.38,0.25,3.64,1.49c1.15,0.62,2.45,1.04,3.64,2.01
		c4.56,3.64,6.44,4.77,6.44,4.77S228.87,377.02,222.98,372.28z"/>
	<path d="M221.97,380.43c0,0,0.54,0.27,2.41-0.57c1.92-0.84-5.89-4.77-8.04-6.44c-2.12-1.68-6.96-2.55-6.96-2.55
		s-1.09-0.26-1.09,1.99c0,2.23,1.09,3.62,1.09,3.62s3.48-0.13,6.46,1.27C218.76,379.16,221.97,380.43,221.97,380.43z"/>
	<path d="M282.38,363.1c0.75-2.19,8.35-13.69,7.8-16.08c-0.56-2.36-3.59-1.18-4.41-1.6c-0.85-0.41-0.6,0.39-2.15,0.39
		c-1.59,0-2.3-2.73-3.4-1.49c-1.04,1.21-3.11-0.24-3.94,0c-0.81,0.2-1.68,0.17-0.89,1.85c0.11,0.23-3.92,3.14-4.31,4.74
		c-0.37,1.6,3.84,4.75,3.39,6.05c-2.24,6.87-6.33,15.45-7.04,16.75c-1,1.78-3.6,4.77-4.25,6.07c-0.39,0.83-0.57,2.11-0.63,2.97
		c-0.05,0.49,4.44,1.52,6.18,3.7c0.56,0.73,0.94,1.1,1.24,1.25c0.57,0.71,1.09,1.44,1.39,2.04c1.41,2.87,2.61,5.76,4.94,5.78
		c1.52,0.02,3.56-1.5,4.05-3.41c0.47-1.93,0.63-4.03-1.95-5.63c-2.58-1.62-4.52,0.75-4.52,0.75s-0.74,1.2,0.15,1.96
		c0.9,0.77,0.43-0.9,1.45-0.93c1.03-0.01,1.03,0.16,1.46,0.48c0.43,0.32,1.57,1.77-0.39,3.49c-0.58,0.54-1.85,0.3-2.72-0.81
		c-0.86-1.07-0.94-2.71-1.01-3.38c-0.04-0.47-0.11-0.88-0.2-1.24c1.07-0.46,1.95-1.27,2.95-1.58c1.26-0.45,3.29-0.83,4.28-0.42
		c2.95,1.25,3.66,1.61,4.93,3.03c1.25,1.42,1.59-3.68,0.55-4.25c-1.02-0.56-2.78-0.33-3.82-2.06c-1.04-1.7-2.26-4.34-3.38-4.93
		c-1.15-0.6-3.06-1.21-3.43-1.06c-0.29,0.11-1.3,0.53-0.41,1.95c0.88,1.43,2.37,2.44,0.49,1.84c-1.92-0.66-3.17-1.35-2.59-3.09
		c0.54-1.72,2.03-2.6,2.99-2.89c0.99-0.33,2.78,0.64,3.68,1.72c0.89,1.13,4,1.69,3.75,0.14c-0.22-1.52-1.22-5.84-1.82-5.75
		c-0.6,0.07-1.31-0.34-1.5-2.08C279.06,365.61,281.66,365.31,282.38,363.1z"/>
	<path d="M286.57,329.56c-3.27,1.23-5.87,2.96-8.16,4.75c-3.85,1.52-11.05,4.27-15.18,3.9c-3.67-0.33-2.12,1.05-6.82,0.51
		c-4.72-0.55-8.09,2.8-11.32,2.4c-2.29-0.27-0.1,0.02-4.4,0.02c-2.99,0-2.92,1.45-2.63,2.35c0.14,0.39,2.08,0.59,4.65,0.89
		c2.54,0.27,5.61,2.66,8.03,3.9c2.42,1.24,3.37,4.27,4.04,5.23c0.67,0.96,4.43,1.1,7.13,0.82c2.68-0.27,3.5-2.06,4.98-5.65
		c1.49-3.57,3.51-3.71,5.92-5.78c0.18-0.15,0.38-0.33,0.6-0.54c4.28-0.87,7.5-1.72,8.31-1.55c2.25,0.42,4.03,2.32,6.13,2.19
		c2.09-0.17,2.22,0.2,2.6-0.62c0.36-0.79-0.54-0.73-2.05-1.82c-3.99-2.82,2.05-5.56,4.18-3.83c2.19,1.79-2.12,2.54,0.71,2.97
		c1.92,0.28,3.18-2.24,2.54-5.22C295.2,331.52,292.31,327.42,286.57,329.56z"/>
	<path d="M278.71,398.18c-0.18-0.31-0.66-0.55-1.7-0.6c-2.74-0.13-2.05-0.57-3.75-1.29c-1.7-0.7-0.75,0.35-1.73-3.69
		c-1.2-4.97-5.28-6.98-7.11-7.28c-1.82-0.32-5.93-0.77-7.23-0.55c-1.27,0.24,1.78,1.84,3.3,2.03c1.57,0.17,3.84-0.65,4.92,0.89
		c1.07,1.54,1.83,2.28,1.76,3.26c-0.08,1-0.14,2.49-1.41,2.8c-1.26,0.27-0.76,0.7-2.9,0.94c-1.44,0.15-2.07,0.34-3.23-0.7
		c-1.21-1.04-1.75-2.4-0.89-3.49c0.81-1.06,2.72-2.18,0.99-2.66c-1.73-0.51-5.05-2.83-6.43-2.14c-1.37,0.72-3.95-0.41-5.42,0.54
		c-1.47,0.94-2.27,1.02-3.47,1.64c-1.22,0.61-1.24,1.26-1.24,1.26s-0.43,0.95,0.35,1.03c0.84,0.07,1.89-0.85,3.66-0.41
		c1.69,0.41,5.78,4.44,6.16,5.02c0.4,0.58,1.18,1.9,1.33,2.79c0.01,0.03,0.01,0.04,0.01,0.07c-1.39,0-2.83-0.01-4.25-0.03
		c-0.6-0.62-1.16-1.23-2.49-1.16c-1.54,0.06-1.68-0.84-2.94-1.99c-0.55-0.5-1.11-2.33-2.17-3.15c-1.05-0.87-5.9,1.06-6.51,1.49
		c-0.6,0.47-2.41,1.49-5.29,3.85c-0.4,0.34-0.8,0.62-1.21,0.87c-2.96-0.02-5.54-0.04-7.43-0.08c-0.12-0.06-0.26-0.11-0.38-0.19
		c-2.67-1.26-3.39-3.23-3.99-4.51c-0.59-1.29-0.55-4.46-0.59-6.22c-0.04-1.75-0.67-1.8-1.78-1.85c-1.09-0.01-0.65,2.49-0.51,4.42
		c0.15,1.93-0.84,3.74-0.19,6.82c0.49,2.38,1.24,5.33,1.99,5.28c0.04,0,0.09-0.01,0.14-0.01c1.06,1.37,2.6,2.47,4.39,2.3
		c-5.41,0.53,48.61,0.6,53.39,0.14c2.99,0.29,4.44-3.24,4.1-4.91C278.93,398.48,278.83,398.31,278.71,398.18z"/>
	<path d="M429.82,172.29c-3.83-7.15-18.87-20.19-27.29-25.74c-3.22-2.12-7.15-3.58-10.94-5.5c-2.55-1.27-4.84-3.06-7.55-4.22
		c-4.53-1.96-8.21-2.68-11.54-3.86c-3.28-1.16-6.69-2.93-9.93-3.89c-4.54-1.35-8.78-1.8-12.97-2.74c-1.79-0.4-3.71-1.47-5.37-1.78
		c-3.66-0.7-6.82-0.64-9.78-0.91c-2.32-0.21-4.59-0.84-6.36-0.78c-6.56,0.21-20.83-2.53-22.63,6.91c0.12,2.01,1.37,5.39,1.27,8.13
		c-0.2,4.89-8.03,7.32-10.5,7.35c-7.36,0.14-13.52-0.57-21.68,7.06c-7.74,7.25-8.33,23.15-8.49,23.2c-0.28,1.89-0.2,3.07,0.14,3.7
		c-0.21,0.13-0.36,0.2-0.49,0.16c-1.08-0.35-0.37-2.95-0.37-6.19c0-3.25-0.46-4.32-0.75-6.48c-0.35-2.19,3.98-13.92,7.71-16.42
		c1.51-1.02,2.66-2.09,2.42-2.41c-1.44-1.9-8.65-0.69-11.57,1.4c-0.98,0.71-1.87,0.55-3.59,2.28c-0.28,0.3-1.21,1.37-2.06,2.25
		c-0.5,0.52-1.57,1.52-2,1.99c-1.44,1.53-3.19,2.42-3.19,2.42s-5.37,3.58-3,2.66c2.86-1.11,4.02-0.56,4.78,0.57
		c0.76,1.15,2.87,6.48,2.87,9.7c0,3.23-1.76,6.14,0,5.41c1.67-0.71,0.98-6.15,0.98-6.15l-0.47-6.8c0,0,0.29-1.74,0.46-1.3
		c0.21,0.44,0.52,1.16,0.84,2.33c1.15,4.07,0.8,15.59-0.68,18.31c-1.07,2.11-1.17,5.71-0.16,7.68c1.44,2.8-0.09,1.66-0.97,1.04
		c-1.3-0.93-3.15-2.34-4.39-3.62c-1.4-1.45-1.75-3.19-1.25-3.98c1.02-1.64,1.47-0.93,2.62-1.11c0.59-0.08-0.36-1.27-2.29-2.65
		c-0.19-0.16-0.87-0.13-1.38-0.56c-0.23-0.22-0.38-0.41-0.66-0.6c-0.3-0.21-1.15-0.23-1.45-0.6c-0.97-1.16-1.86-1.57-2.12-1.82
		c-0.48-0.46,1.5-0.26,3.12-0.01c1.08,0.17,2.43,0.12,2.86-0.14c0.45-0.28,0.86-0.62,0.52-0.72c-1.98-0.56-6.57-1.07-8.29-1.54
		c-2.25-0.64-2.76,0-4.8-1.44c-2.06-1.4-1.04-6.46-1.04-6.46l2.92,0.06l1.75-1.28c0.07,0.17,0.24,0.21,0.58,0.01
		c0.09-0.04,0.37-0.34,0.75-0.76c0.2-0.08,0.43-0.24,0.53-0.59c1.15-1.33,2.73-3.19,2.96-3.33c0.34-0.22,0.45-0.87,0.81-1.13
		c0.3-0.23,0.87-0.06,1.19-0.32c0.32-0.25,0.63-0.53,0.93-0.83c0.3-0.27,0.56-0.55,0.83-0.83c1.3-1.38,2.49-3.09,3.34-5.13
		c0.47-1.14-0.1-2.51,2.33-3.36c2.45-0.91,2.8-0.54,3.4-1.06c0.56-0.53,1.42-1.45,1.69-2.58c0.24-1.15,0.14-0.67-0.54-2.71
		c-0.64-1.99-1.15-3.05-1.98-3.05c-0.8,0-1.06-2.92-0.8-3.78c0.2-0.9,0.9-1.7-0.12-1.87c-1.03-0.18-2.54,1.75-2.12,0
		c0.41-1.74,1.51,0,1.51-1.07c0-1.02,2.94,0.59,3.68-1.85c0.66-2.33-0.04-6.78-1.27-7.93c-1.26-1.19-2.52-2.74-1.78-3.27
		c0.62-0.54,2.33-1.53,0.9-3.02c-2.29-2.4-1.13-4.25-2.17-6.48c-3.42-7.35-7.03-7.05-7.84-7.15c-0.85-0.07-1.29,1.45,0.12,3.89
		c1.44,2.42,0.23,2.25,0.09,2.2c-0.35-0.11-1.78-0.55-2.66-0.81c-0.82-0.26-1.05,0.95,0.46,3.31c1.55,2.38,3.16,3.51,3.3,4.64
		c0.17,1.13,0.73,1.47-0.39,1.47c-1.15,0-3.39-0.69-3.7-0.58c-3.48,1.28,0.92,7.93-0.35,7.85c-0.44-0.02-2.56-4.6-3.52-5.57
		c-0.89-0.95-0.91-2.12-0.65-3.67c0.26-1.55-0.7-2.94-1.04-3.57c-0.32-0.6-2.23-1.95-0.17-4.14c2.06-2.18,3.84-2.27,2.9-2.51
		c-0.91-0.29-3.01-1.27-3.52-1.42c-0.42-0.12-0.98-0.24-1.02,0.63c-0.07,0.86,0,2.17-0.85,3.1c-0.81,0.97-0.57,2.2-1.34,2.06
		c-0.68-0.06-1.46,0.28-1.81,0.57c-0.51,0.43-0.05,0.13-1.15,1.5c-0.69,0.87-1.05,0.95-0.79,1.29c0.36,0.35,1.2-0.02,2.85-0.02
		c1.66,0,2.07-0.43,2.42,0.93c0.35,1.43,0.44,2.34-0.4,2.68c-0.85,0.35-3.23,0-4.34,1.4c-1.07,1.36-0.57,2.26-1.63,2.36
		c-1.08,0.1-2.07-0.76-2.48,0.1c-0.42,0.84,0.01,1.94,0,2.82c-0.1,0.85-1.38,1.86-2.37,1.86c-1.04,0-1.67-0.82-2.18-1.52
		c-0.51-0.69-0.3-1.33-0.71-1.08c0,0-0.6,0.12-0.33,1.8c0.25,1.65,2.02,2.6,2.16,4.27c0.04,1.66,0.34,2.55,0.33,3.81
		c0,0.82,0.96,1.98-0.13,3.01c-0.38,0.36-3.74,0.5-5.73,1.55c-1.71,0.88,2.2,5.61,1.7,6.78c-0.45,1.11-0.98,1.92-1.07,2.76
		c-0.17,1.62,0.8,1.91,1.04,3.11c0.13,0.68-0.32,1.32-0.39,1.69c-0.06-0.08-0.14-0.17-0.29-0.27c-0.98-0.63,0.04-2.38-1.16-3.31
		c-2.22-1.7-1.1-1.68-0.48-4.2c0.81-3.36-0.8-5.33-1.48-6.41c-0.45-0.75-3.28-2.41-5.35-3.44c-1.89-2.11-10.03-1.42-10.7-2.7
		c-1.87-3.67,3.75-10.11,4.65-13.99c0.16-0.56,0.4-2.58,0.47-2.78c2.59,0.93,15.32,5.46,17.07,6.09c0.29,0.26,0.67,0.4,0.85,0.37
		c1.01,0,1.75-0.06,2.3-1.34c0.39-0.75-1.83-0.79-2.34-0.95c-3.22-1.38-14.25-5.18-17.31-6.67c0.41-1.3,0.07-2.44-0.28-3.36
		c-0.38-1.08-1.3-2.61-4.27-2.69c-0.58-0.68-1.62-1.09-2.44-0.86c-0.06,0.02-0.12,0.03-0.18,0.01c-0.15-0.32-0.76-0.28-1.07-0.5
		c-0.73-0.73-1.6-0.88-2.72-0.61c-0.02-0.02-0.03-0.05-0.05-0.08c-1.09-0.73-1.67-1.03-3-1.15c-0.11,0.05-0.42,0.04-0.65,0.05
		c-0.09,0-0.13-0.08-0.21-0.12c-1.01-0.53-3.51-0.06-4.86,0.36c-3.71-1.78-7.49-3.47-8.72-4.08c-11.61-5.13-52.89-21.95-62.06-25.5
		c-4.86-1.87-13.71-5.82-20.22-9.84c-2.61-1.61-4.93-4.84-7.06-11.64c-0.37-1.18-0.1-4.53-3.04-0.96
		c-3.09,3.77-6.59,10.85-7.63,19.37c-0.14,1.05-0.71,3.5,1.34,2.42c2.87-1.52,8.29-4.25,13.36-3.15c6.5,1.42,27.38,8.97,43.19,15.52
		c10.6,4.41,43.53,17.49,46.96,19.43c0.41,0.22,0.48,0.34,0.42,0.4c-0.21,0-0.42,0.02-0.62,0.04c-0.13-0.01-0.24-0.02-0.22-0.01
		c-0.06,0.37-7.36-2.43-24.71-3.44c-0.89-0.05-5.07-0.79-11.24-0.45c-2.7,0.14-5.92,0.76-9.33,1.12c-3.74,0.41-7.77,0.59-12.19,1.37
		c-2.52,0.45-6.31,0.61-8.98,1.21c-6.35,1.41-9.35,3.23-12.41,4.72c-2.91,1.42-6.31,1.33-9.46,2.55
		c-13.55,5.22-27.41,12.88-39.47,24.04c-5.48,5.08-8.55,7.54-0.79,6.16c2.29-0.41,3.71,0.14,4.82-1.32
		c1.97-2.57,12.24-6.63,9.05,0.56c-1.49,8.32,3.59,4.37,8.45,1.8c1.33-0.7,14.13-7.48,15.13-7.33c0.49-0.06,0.78,0.16,0.85,0.39
		c0.11,0.28,0,0.73-0.25,1.29c-1.39,3.1-7.31,9.5-7.61,9.5c-0.41,2.17,1.76,2.69,4.74,1.17c8.06-1.85,14.62-7.61,23.13-9.67
		c5.52-1.34,9.2-2.74,10.43-2.05c0.6,0.33,0.45,1.86,0.47,2.27c0.17,4.46-3.21,13.86-0.65,14.6c2.71,0.78,9.87-10.96,11.47-13.02
		c0.66-0.85,1.36-1.59,1.89-2.15c0.63-0.65,0.99-0.18,1.11,0.31c0.49,1.94,0.67,3.8,0.78,7c0.06,1.42-0.04,4.07-1.1,6.92
		c-2.03,5.43,1.73,2.98,5.26,0.9c1.49-0.87,5.47-3.51,7.22-5.41c2.5-2.69,5.51-5.89,5.51-5.89c0.43-0.58,0.63-0.63,1.31-0.73
		c3.19,0.8-1.06,16.99,4.25,16.99c4.67,0,6.76-9.61,8.64-8.92c1.89,0.71,5.44,12.57,9.25,13.31c0,0.02-0.7-2.34,0.11-4.5
		c0.78,1.18-0.71-3.72,0.49-2.7c7.17,6.07,4.13,7.8,4.4,12.09c0.44,7.57,5.92,5.63,6.34,6.15c2.46,3.08-0.87-4.17,1.69-1.97
		c0.68,0.57,6.36,2.05,6.05,3.01c-1.64,5.12,4.16,12.83,0.49,16.73c-1.47,1.55-2.52,3.36-3.23,5.18c-3.51,4.47-8.1,11.94-10,22.12
		c1.65,10.09,10.3,21.26,12.47,22.79c2.31,1.6,2.75,0.74,2.26-1.38c-0.38-1.59,0.71-2.89-1.03-4.96c-0.65-0.78-0.93-3.63-1.31-4.58
		c-1.53-3.87-2.63-7.17-2.89-8.68c-0.19-1.24-0.41-2.21-0.53-3.25c-0.06-0.46-0.09-0.92-0.11-1.39c-0.07-1.26,0-2.61,0.31-4.34
		c0.2-1.11,0.36-2.36,0.69-3.34c0.18-0.6,0.54-1.02,0.79-1.51c0.41-0.85,0.78-1.71,1.23-2.55c0.25-0.42,0.3-1.01,0.56-1.42
		c0.4-0.64,1.04-0.77,1.26-1.12c0.42-0.62,0.09-1.26-0.07-1.75c1.18-1.77,2.51-3.81,3.82-5.71c1.24-1.67,2.38-3.2,2.89-3.81
		c0.15-0.17,0.23-0.29,0.25-0.4c0.95-1.12,1.8-1.94,2.5-2.25c1.56-0.71,2.8-1.39,3.8-2.03c0.38,0.18,1.16,0.07,2.46-0.41
		c4.13-1.55,8.31-5.39,8.31-5.39l0.3-1.11c1.06-1.1,2.04-2.16,2.97-2.98c0.64-0.55,1.19-1.12,1.71-1.67
		c1.01-0.25,2.06-0.33,2.94,0.01l3.5-7.91c0,0,1,5.54,1.35,7c0.31,1.43,2.13,5.27,3.82,5.27c1.71,0-0.35-2.9-0.35-2.9
		s1.36,0.71,3.44,2.5c2.09,1.79,5.22,1.8,6.25,4.29c1.05,2.54,0,2.91,0,2.91s-14.16-4.66-19.71-3.6
		c-5.54,1.11-14.43,3.89-17.54,7.49c-0.63,0.73-0.99,1.46-1.19,2.18c-0.61,1.02-1.45,2.33-2.49,3.64c-0.37,0.45-0.47,1.4-0.85,1.95
		c-0.45,0.63-0.22,1.27-0.71,2.03c-1.54,2.41-1.38,4.85-2.94,8.63c-0.57,1.38-1.88,3.82-2.21,5.24c-0.41,1.75-0.34,3.39-0.44,5.14
		c-0.11,1.39-0.44,2.87-0.4,4.21c0.11,3.1,0.63,5.94,1.28,8.39c0.79,4.59,2.13,13.53,1.81,19.68c-0.05,0.8,0.3,1.85,0.24,2.68
		c-0.06,0.8-0.52,1.38-0.57,2.19c-0.05,0.76,0.39,2.34,0.33,3.1c-0.32,5.6-1.07,9.5-1.07,13c0.11,1.66-0.34,2.91-0.1,4.2
		c-2.18,9.79-7.27,18.92-13.06,24.84c-4.34,8.92-14.61,11.42-27.67,13.68c-2.74,1.38-9.51-3.14-9.14-3.93
		c-5.01-2.54-9.03,6.85-5.79,6.85c4.74,2.17,8.61,21.5,14.2,18.21c3.87-2.28,3.19,3.7,7.1,1.42c1.75-0.41,2.39,0.09,3.81-2.57
		c3.27-5.37,8.41-8.24,11.44-11.6c2.18-2.37,5.95-13.01,7.03-12.59c0,7.28-9.14,19.71-13.39,22.11c-6.45,6.6-3.02,9.92-0.19,15.9
		c0.64,1.38,0.78,2.68,2.04,3.82c0.58,0.53,1.67,1.16,2.39,1.61c2.52,2.14,9.58,2.04,12.02,0.67c2.49-1.39,5.19-0.48,5.63-1.33
		c0.87-1.69-3.86-8.01-5.09-9.52c-1.23-1.52-2.37-1.28-1.77-3.32c1-3.36-1.85-2.75-0.13-6.45c1.9-4.13,3.31-10.44,4.8-14.08
		c0.11,0,9.82-26.01,10.07-30.34c0.48-3.08,3.78-11.08,4.35-8.91c-1.46,11.58-5.08,27.64-9.76,43.59
		c1.11,7.06-3.22,10.04-3.14,15.39c0.05,3.37,2.44,2.69,3.23,2.78c4.02,0.46,6.58,3.18,9.35,2.25c3.7-1.05,10.18-5.63,7.97-5.48
		c-1.63,0.1,2.1-6.92,2.1-9.61c0-2.48-3.95-9.92-4.78-18.51c-0.28-2.97,5.79-7.39,5.75-8.61c-0.03-1.45-5.36,0.57-6.23-1.3
		c-1.39-3.06-1.26-11.48-0.37-15.86c0.23-4.49,1.44-16.66,1.23-18.36c0.77-3.43,7.94,5.56,10.4,11c0.1-0.04,0.35,0.78,0.46,3.01
		c0.03,0.72-0.16,1.68-0.1,2.68c0.05,1.07,0.3,2.37,0.33,3.79c0.02,0.54,0.04,1.12,0.04,1.71c0.01,0.53-0.2,1.39-0.19,1.98
		c0.01,0.99,0.24,1.76,0.26,2.89c0,1.54,0,3.23,0,5.02c-0.02,0.83-0.25,0.63-2.4,1.78c-1.13,0.62-1.99,0.57-1.83,1.7
		c0.23,1.79,4.09,2.53,4.57,7.58c0.2,2.08-0.26,10.29,0.68,14.99c0.2,0.96,0.44,2.4,0.52,2.52c0.61,0.82,0.78,4.06-0.08,5.46
		c-0.23,0.36-1.23,5.25-0.44,5.21l6.17-0.9c0.41-0.02,0.88-0.11,1.45-0.25c0.36,0.06,0.71,0.07,1.08,0.06
		c0.93-0.07,2.33-0.42,3.75-1.78c2.02-0.83,3.8-0.67,4.87-1.13c1.45-0.63,8.94,0.3,10.5-0.14c6.47-1.79,16.94-2.11,18.78-4
		c1.19-0.32,2.48-0.77,3.75-1.28c-0.54,0.09-1.75-0.02-3.16-4.26c-1.7-5.07-4.3-9.4-7.44-12.47c-3.13-3.07-15.42-17.38-15.42-17.38
		s3.65,2.17,5.15,2.67c5.37,1.83,11.24,2.3,11.24,2.3s4.05,6.82,6.88,10.55c2.84,3.73,9.26,9.56,10.7,11.95
		c1.58,2.64,1.47,2.95-0.99,3.84c-1.95,0.73-3.68,1.46-4.92,2.01c3.06-1.26,5.89-2.51,7.19-2.54c0.9,0.14,1.67-0.24,2.45-0.04h0.59
		c6.96,1.3,9.98,11.83,11.46,11.92l0,0c3.23,1.02,3.97-0.77,7.61-2.38c3.25-1.44-4.79-4.66-2.6-9.99c0.8-1.9,3.25-8.76,6-11.47
		c1.45-1.42,2.34-0.73,3.06-1.47c1.05-1.07-0.1-3.88-0.99-4.62c-1.59-1.31-5.81-0.42-8.55,5.16c-0.18,0.36-1.08,1-1.51,0.98
		c-0.57-0.03-0.74,0.74-1.48,0.25c-0.78-0.49,3.3-3.53,2.58-4.31c-2.18-2.37-6.62-2.86-3.56-4.34c0.93-1.38-0.84-3.36-0.96-4.8
		c-1-6.41-6.98-8.68-13.87-9.38c-0.76-0.06-0.45-1.2-1.45-1.04c-0.94,0.16-2.8,0.81-3.76,0.8c-1.15-0.01-2.01-0.4-3.3-0.21
		c-0.64,0.12-1.39,0.28-2,0.32c-0.73,0.02-1.32-0.18-2.01-0.15c-1.07,0.06-2.22,0.34-3.2,0.39c-2.71,0.13-4.95,0.17-6.34-0.12
		c-1.72-0.31-1.66,0.61-5.12,0.84c-12.13-2.43-19.11-6.9-28.48-17.2c-6.37-3.98,1.32,0.35,1.23-1.16c3.88,0.92-4.68-2.56-9.44-6.2
		c-1.58-2.52-3.92-1.45-7.92-5.6c-0.51-0.53-1.72-0.94-3.99-2.83c-0.04-0.19-0.08-0.38-0.14-0.57c-0.87-2.25-2.82-3.83-2.55-7.11
		c0.29-3.33-1.62-5.47-1.62-5.47s2.59-1.85,0-5.04c-1.09-1.31-1.84-2.99-2.35-4.49c0.09-0.54,0.16-1.14,0.23-1.81
		c0.2-1.65-3.03-3.62-1.86-12.72c0.14-1.01,0.87-3.91,1.09-5.02c0.17-0.91-0.66-2.66-0.42-3.65c0.26-1.14,1.61-1.53,1.99-2.78
		c0.41-1.44,0.68-4.33,2.24-7.06c1.16-2.05,2.19-4.71,3.07-7.19l3.19-5.35c0,0,4.65-3.89,9.5-3.89c4.87,0,7.03-7.76,23.76,2.8
		c3.34,2.09,2.31,7.38,4.17,8.76c1.68,1.27,1.57,1.83,1.82,3.14c0.43,2.19-1.45,4.46-2.83,5.79c-3.09,2.99-13.95,19.76-9.75,16.82
		c5.76-4.05,5.17-9.02,6.55-9.37c1.37-0.34,6.07-7.4,8.12-8.86c1.3-0.9,2.05,2.16,2.75,5.56c-0.08-2.04,0.01-4.07,0.01-5.48
		c0-5.01,2.61-8.67,3.96-10.79c1.64-2.7,2.21-3.78,8.21-14.25c5.97-10.49,8.52-11.48,8.52-11.48s2.07-0.74,3.29-0.7
		c1.18,0.11,1.74,0.39,2.88,0.73c1.09,0.34,1.38,0.04,2.8,0.44c1.44,0.4,0.88,1.41,0.69,2.83c-0.19,1.43-0.63,1.56-0.74,2.09
		c-0.11,0.47-0.7,7.2-6.59,13.26c-4.19,4.32-15.45,14-16.46,15.33c-1,1.29-0.63,1.46-0.57,2.54c0.04,1.08,1.54,3.33,2.43,3.97
		c0.85,0.61,1.52,1.68,1.28,2.27c-0.2,0.62-0.78,0.9-2.18-0.23c-2.09-1.62-3.53-1.49-3.47-0.04c0.09,1.49-0.29,3.2,0.62,4.59
		c0.59,0.88,2.79,2.39,3.95,1.84c0.64-0.31,1.2-0.52,1.45-0.19c0.21,0.27,0.23,0.43-0.87,1.35c-1.29,1.07-4.01,0.9-6.94-1.13
		c-0.27-0.17-0.48-0.42-0.69-0.69c1.25,3.7,1.92,7.08,2.93,9.14c0.06,0.13,0.12,0.3,0.18,0.5c0.21,0.31,0.37,0.55,0.48,0.7
		c5.85,8.13,9.24,7.1,9.24,7.1s4.01,1.25,5.53,1.75c0.24,0.03,0.5,0.15,0.79,0.31c0.1,0.05,0.18,0.11,0.26,0.15
		c0.6,0.39,2.06,1.52,3.36,2.72c0.97,0.9,0.61,1.12,1.9,1.53c1.09,0.36,0.4,0.58,1.51,0.58c1.8,0.01,5.09-0.4,6.27,0.07
		c0.39,0.17,1.29-3.01,4.36-5.12c0.1-0.06,1.42-1.84,1.46-1.96c0.02-0.03-5.83,6.09-10.01,3.09c-6.22-4.45-6.71-7.91-10.03-11.35
		c-0.24-0.24-1.15-1.39-1.38-1.61c-0.48-0.54-0.59-0.41-1.02-0.9c-0.3-0.34-0.65-0.89-0.94-1.17c-1.51-1.4-2.59-4.2-3.06-5.04
		c-0.35-0.65-0.72-1.3-0.37-0.96c0.58,0.54,1.47,1.38,2.55,2.41c0.51,0.47,2.13,1.1,2.7,1.64c0.23,0.22,0.46,0.45,0.71,0.67
		c0.27,0.27,0.54,0.52,0.82,0.79c4.42,4.17,11.86,3.68,13.1,3.86c0.22,0.03-0.22-0.19,0.04-0.2c0.33-0.01,2.7,1.35,3.02,1.33
		c0.2-0.02,0.51-0.3,0.7-0.34c0.62-0.07,1.31,0.21,1.85,0.02c0.28-0.11,0.54-0.23,0.79-0.37c0.48-0.28,0.89,0.01,1.18-0.45
		c1.06-1.69,1.42,0.22,1.92-1.18c0.3-0.82,0.6,0.14,0.73-0.3c0.13-0.39,0.6-0.63,0.62-0.6c0.14,0.13-0.44,4.47-1.01,7.96
		c-0.59,3.56-7.36,9.72-7.1,10.56c1.18,3.71,3.23,6.11,4.64,7.93c1.5,1.92,2.31,3.19,2.57,3.62c0.95,1.66,2.83,1.01,4.43-0.65
		c0.63-0.68,0.96-1.68,1.42-2.59c0.16-0.33,0.68-0.98,1.06-1.6c0.51-0.81,1.21-1.52,1.88-2.6c0.27-0.46,0.28-1.14,0.56-1.61
		c0.27-0.47,1.02-1.04,1.27-1.48c0.6-1.18,0.8-1.95,0.9-2.72c0.35-2.7-3.4-4.03-3.38-4.29c0.18-1.24-2.85-2.44-2.02-6.27
		c1.41-6.47,5.58-8.38,2.55-12.82c-0.61-0.93-0.72-2.68-1.22-3.24c-0.59-0.65-1.18-0.85-2.45-1.43c-1.58-0.71-3.51,2.4-5.65,2.1
		c-5.49-0.78-9.43-4.7-9.43-4.7s-10.34-5.64-10.96-8.56c-0.29-1.13-5.03-4.72-4.09-5.53c0.64-0.52-0.54,0.32,0.1-0.19
		c0.47-0.34,0.95-0.79,1.38-0.98c0.32-0.15,0.33-0.6,0.57-0.36c1.56,1.59,5.95,9.03,8.12,10.19c2.8,1.51,3.4,1.6,5.71,4.27
		c2.41,2.78,2.54,0.04,2.65-1.88c0.1-1.66,1.79-4.8,1.64-6.79c-0.29-4.32,0.09-6.81,1.44-11.84c1.43-5.03,2.19-8.36,0.15-14.12
		c-0.39-1.06-0.15-2.44-0.15-3.54c0-2.51-2.52-7.41-4.11-8.29c-1.24-0.72-3.48-2.22-8.08-0.54c-0.91,0.33-1.37,0.56-1.87,0.63
		c-0.26,0.05-0.87,0.61-1,0.58c-0.38-0.1-0.28-0.44,0.25-0.96c0.32-0.33,0.83-0.73,1.48-1.19c1.14-0.79,3.32-1.86,4.66-1.67
		c1.6,0.23,2.1-0.89,0.6-1.25c-1.46-0.35-3.38-0.61-5.03-0.11c-0.85,0.26-1.52,0.55-2.41,1.28c-0.28,0.22-0.55,0.32-0.82,0.57
		c-0.13,0.13-0.43,0.65-0.57,0.77c-0.14,0.14-1.3,1.05-1.44,1.2c-1.17,1.17-1.21,1.5-1.7,2.17c-1.05,1.42-4.51,3.79-5.56,6.7
		c-1,2.85-1.83,4.43-1.83,2.63c0-1.65-0.19-1.21,0.59-4.41c3.21-5.42,8.69-11.84,11.5-13.43c5.61-2.3,6.67,0.47,8.82,1.44
		c4.41,3.31,8.44,6.66,8.44,14.66c0,2.63,4.65-0.33,5.23-1.17c1.58-2.25,4.38-4.91,4.67-4.38c0.5,0.32,1.7,1.89,2.68,3.43
		c0.8,1.26,4.48,6.36,5.46,7.51c2.62,3.04,3.79,2.85,3.07-1.02c-0.86-4.47,2.2-12.61,2.64-14.51c0.56-0.1,7.69,6.02,9,7.31
		c4.57,4.49,6.51,5.64,7.83,4.68c1.34-0.97,0.68-3.11,0.49-4.73c-0.49-4.19-1.54-10.48-0.71-11.17c0.91-0.79,5.77,3.1,8,6.18
		c1.43,1.98,8.41,9.38,11.38,8.86c1.18-0.22-0.92-2.13-1.61-5.52c-0.71-3.48-1.58-10.82,0.76-10.62c3.98,0.38,5.51,2.58,9.91,5.75
		c2.1,1.5,6.28,5.64,12.73,8.52c5.78,2.56,6.71,1.63,5.66-0.38c-0.57-1.07-3.75-6.3-4.35-8.31c-0.58-1.92,0.17-3.2,1.45-2.15
		c5.53,4.48,15.91,9.15,17.25,9.49c5.22,1.32,7.8,2.45,8.68,1.12c1.24-1.82-0.62-4.83-0.79-6.88c-0.08-1,0.08-1.68,0.62-1.25
		c0.91,0.72,1.89,1.63,2.88,2.56c3.66,3.47,7.23,5.75,13.42,7.34C430.36,174.11,430.37,173.32,429.82,172.29z M217.9,148.76
		c-0.26-0.35-0.49-0.72-0.64-1.06C217.45,148.04,217.68,148.4,217.9,148.76z M201.02,106.32c-0.3,0.06-0.62,0.15-0.95,0.24
		c0.08-0.06,0.14-0.13,0.15-0.24c0.01-0.08-0.02-0.15-0.04-0.22C200.47,106.16,200.75,106.23,201.02,106.32z M196.46,106.23
		c0.03,0.04,0.08,0.1,0.13,0.15c-0.2-0.08-0.4-0.16-0.58-0.26C196.23,106.15,196.44,106.19,196.46,106.23z M198.19,106.69
		c0.07,0.11,0.35,0.19,0.61,0.23c-0.21,0.07-0.39,0.13-0.6,0.19c-0.35-0.16-0.68-0.31-1.01-0.44
		C197.55,106.64,198.16,106.64,198.19,106.69z M233.78,164.86c-0.03-0.25-0.04-0.37-0.04-0.36c-1.38-0.16-1.43,0.94-3.13,2.58
		c-0.15,0.14-0.34,0.29-0.5,0.44c-0.49,0.45-1.15,0.86-1.86,1.22c-2.23,0.71-6.67-0.18-11.35,0.97c-2.01-0.21-4.13-0.09-5.46,0.99
		c-0.63,0.5-0.71,1.03-0.44,1.61c-1.8,0.74-4.5,1.2-5.5,0.12c0.11-0.32,0.25-0.63,0.45-0.93c3.36-5.15,3.89-3.07,2.63-9.58
		c-0.34-1.79-0.54-3.42-0.54-4.92c-0.38-0.51-1.17-1.39-3.25-0.84c-2.13,0.58-4.25,0.37-9.53-0.37c-1.85-0.26-3.22-0.79-5.08-1.33
		c-0.47-0.13-1.45-0.18-1.89-0.31c-0.51-0.17-0.84-0.41-1.35-0.57c-0.23-0.08-0.67-0.11-0.91-0.18c-1.95-0.66-3.5-1.57-5.15-2.17
		c-1.28-0.48-2.74-0.67-3.73-0.98c-0.88-0.29-3.12-0.91-3.61-1.33c-0.84-0.82-0.62-0.98-0.47-3.32
		c1.06-15.66,10.41-23.21,11.01-24.4c2.42-4.55,4.81-6.66,6.14-8.67c1.31-2,1.2-4.12,1.59-4.51c0.87,0.09,2.13,0.91,2.81,0.99
		c1.38,0.19,1.12,0.61,2.54,0.26c0.17-0.04,1.94,0.15,2.24,0.37c0.13-0.09,0.5-0.56,0.59-0.75c0.23-0.37,0.44-1.45,0.92-1.54
		c0.46-0.1,1.01,0.13,1.03,0.9c0.03,0.78-0.03,1.57-0.17,1.99c-0.06,0.19-0.54,1.08-0.81,1.3c-0.03,0.01-0.05,0.03-0.06,0.05
		c-0.06,0.04-0.1,0.07-0.16,0.11c-0.06,0.05-0.12,0.12-0.18,0.18c-0.01,0.01-0.01,0.03-0.01,0.03c-0.8,0.85-1.38,2.18-3.27,2.39
		c-4.33,0.52-7.28,12.65-8.88,16.9c-0.84,2.29-3.18,5.8-3.09,8.73c0.14,0.51,1.15,0.84,2.35,1.07c1.38,0.29,3.08,0.46,5.45,0.48
		c1,0.01,2.15-0.11,3.28-0.12c0.77-0.01,1.48,0.13,2.3,0.12c0.93-0.03,1.94-0.2,2.91-0.24c1.67-0.03,3.38-0.08,5.11-0.12
		c1.58-0.03,3.11-0.62,3.32-0.67c2.51-0.61,4.12-0.71,5.19-0.55c0.1,0.63,0.1,1.42-0.11,2.48c-0.08,0.06-0.17,0.14-0.26,0.2
		c-0.74,0.58-2.52,1.57-2.8,5.13c-0.28,3.55-0.17,2.5,0.98,4.15c1.65,2.32,0.85,0.71,2.43,0.22c1.58-0.49,4.96,2.63,5.48,1.03
		c0.16-0.43-0.1-0.97-0.57-1.56c0.44,0.31,0.87,0.53,1.3,0.57c0.25,0.02,0.72-0.07,0.83-0.26c0.07,0.11,0.31,0.16,0.84,0.11
		c1.14-0.09,1.82-2.13,1.61-4.38c-0.25-2.27-0.05-0.76-0.05-2.13c0-1.39,0-3.27,0.78-4.7c0.76-1.45,3.47-1.25,3.47-3.37
		c0-2.1,0.11-6.45,0.65-6.18c0.64,0.28,1.17,2.24,1.17,4.8c0,2.51-0.25,2.89,0.61,3.71c0.84,0.85,2.19,1.43,2.19,1.43
		s1.6,0.5,0.98-2.21c-0.67-2.71-2.04-2.84-1.43-4.77c0.59-1.88,1.32-4.21,4.01-1.64c1.7,1.62,1.02,0.93,2.34,3.46
		c0.59,1.12,1.35,2.2,0.83,4.03c-0.28,1.01-1.02,1.26-1.26,3.33c-0.28,2.11-0.55,2.5,1.37,2.98c1.92,0.45,2.44,0.69,4.17-0.69
		c1.71-1.41,2.89-2.38,3.54-2.13c0.7,0.3,1.78,0.3,1.31,1.43c-0.54,1.1-0.94,0.37-1.34,1.37c-0.23,0.57-1.07,2.26,0.12,2.26
		c1.22,0,0.34,1.43,0.99,1.82c0.7,0.32,0.83,0.44-0.06,2.09c-0.92,1.62-0.27,0.82-1.36,1.93c-0.91,0.9-3.6,5.11-4.12,6.99
		c-1.31-0.1-3.48,3.07-5.43,2.52C237.08,163.5,235.41,163.98,233.78,164.86z M278.54,209.68c7.58,6.62,10.74,5.98,12.3,5.95
		c1.57-0.02,6.55,1.51,6.47,2.36c-0.08,0.83-1.85-0.36-2.31-0.36c-10.01,0.5-15.51-3.57-17.93-4.98c-2.45-1.43-3.91-7.76-6.38-9.66
		c0.67-0.69,0.95-0.94,1.49-1.42C273.66,202.34,277.67,208.91,278.54,209.68z"/>
</g>
</svg>
